<svg xmlns="http://www.w3.org/2000/svg" version="1.1" xmlns:xlink="http://www.w3.org/1999/xlink" xmlns:svgjs="http://svgjs.dev/svgjs" viewBox="0 0 1000 600"><rect width="10" height="4" x="0" y="0" fill="#00000000"/><g><circle r="166.66666666666666" cx="342.8002573649088" cy="365.02246722326424" fill="#000000" transform="matrix(0.7096886945458968,0,0,0.7096886945458969,0,40.94768979586148)"/><path d="M330.18979528212554 440.022467380549L274.5079776366944 440.022467380549L274.5079776366944 436.39241691046703L292.6897956433658 427.30150790713134L292.6897956433658 302.74342829892777L274.5079776366944 293.6525192955921L274.5079776366944 290.02246882551015L333.1569669707142 290.02246882551015Q357.02060310447047 290.02246882551015 370.75166357825873 299.9025192353854Q384.5142897083086 309.78256964526065 384.5142897083086 327.08054927660766L384.5142897083086 327.08054927660766Q384.5142897083086 339.80150875002533 375.86529989263505 349.9025187537317Q367.2478757332231 360.0350944136996 352.9170677904647 365.2434276968607L352.9170677904647 365.2434276968607L396.0988855563093 428.21691193871726L411.0925722805609 436.39241691046703L411.0925722805609 440.022467380549L378.35898673730003 440.022467380549L334.29333059613117 371.14620541777657L313.1443409008711 371.14620541777657L313.1443409008711 427.0805483133003L330.18979528212554 436.39241691046703L330.18979528212554 440.022467380549ZM327.9170680312916 302.5224687050967L327.9170680312916 302.5224687050967L313.1443409008711 302.5224687050967L313.1443409008711 358.6462055381899L329.2743912505396 358.6462055381899Q343.605199193298 358.6462055381899 353.0433304155111 350.5969631914865Q362.4498959814626 342.5161551885214 362.4498959814626 330.01615530893486L362.4498959814626 330.01615530893486Q362.4498959814626 317.2951958355172 353.1380273842958 309.90883227030696Q343.82615878712903 302.5224687050967 327.9170680312916 302.5224687050967Z " fill="#ffffff" transform="matrix(0.7096886945458968,0,0,0.7096886945458969,0,40.94768979586148)"/><path d="M637.8063996718057 440.0224598259527L637.8063996718057 440.0224598259527Q624.1115475415708 440.0224598259527 614.6446363374488 437.47956781966747Q605.1470878802389 434.93667581338224 595.0061571081859 429.88152905389967L595.0061571081859 429.88152905389967L592.8002748858661 393.69893315723897L596.3235589909601 393.69893315723897L607.1385093309442 417.0751572632103Q615.0735578806776 423.6928039301693 622.5796848871821 426.6646174796834Q630.0858118936867 429.66706828228524 637.8063996718057 429.66706828228524L637.8063996718057 429.66706828228524Q650.8272322341094 429.66706828228524 658.2108102282629 422.80432359062394Q665.5943882224163 415.9722161520504 665.5943882224163 404.2994227256086L665.5943882224163 404.2994227256086Q665.5943882224163 394.58741349678445 661.305172790128 389.07270794098514Q656.985320104752 383.55800238518594 648.9277225426675 379.23814969980987Q640.9007622336708 374.94893426752145 629.8713511220723 369.43422871172226L629.8713511220723 369.43422871172226Q619.485322325317 364.1339839275374 612.2242933435147 359.0788371680548Q604.9326271086245 353.99305315548435 601.1948822319162 347.25285747617414Q597.42650010212 340.5432990499517 597.42650010212 330.4023682778986L597.42650010212 330.4023682778986Q597.42650010212 322.8962412713941 601.072333219565 315.72712404885505Q604.7181663370101 308.55800682631605 610.9988032200037 302.70629148655127Q617.2794401029972 296.8545761467865 625.1225768934673 293.45384105404366Q632.9350764308496 290.02246870821295 641.3296837768996 290.02246870821295L641.3296837768996 290.02246870821295Q651.4706145489527 290.02246870821295 660.079682666617 292.4428117021471Q668.6887507842815 294.8631546960812 677.7267404451746 299.2749191407206L677.7267404451746 299.2749191407206L679.9326226674945 334.5690346978359L676.4093385624004 334.5690346978359L666.2684077903474 311.407271363479Q658.5478200122284 305.6781050360653 652.788016431727 303.13521302978006Q647.0588501043133 300.62295827658266 639.5527230978088 300.62295827658266L639.5527230978088 300.62295827658266Q629.8713511220723 300.62295827658266 623.5600769859909 307.24060494354177Q617.2794401029972 313.8582516105009 617.2794401029972 323.5396235862374L617.2794401029972 323.5396235862374Q617.2794401029972 334.8141327225381 624.1115475415708 341.09476960553167Q630.9742922332322 347.37540648852524 645.5269874499246 354.4219746987132L645.5269874499246 354.4219746987132Q658.9767415554572 361.0396213656723 667.5858096731216 366.6768759338226Q676.194877790786 372.314130501973 680.3615442107232 379.5751594837753Q684.5588478837482 386.86682571866544 684.5588478837482 398.11069760187837L684.5588478837482 398.11069760187837Q684.5588478837482 408.4660891455458 680.1470834391088 416.30922593601593Q675.7353189944694 424.15236272648593 668.7806625435447 429.42197025758304Q661.856643345708 434.7222150417678 653.584585012009 437.38765606040414Q645.3125266783102 440.0224598259527 637.8063996718057 440.0224598259527ZM793.535557116959 437.816577603633L735.2941389971013 437.816577603633L735.2941389971013 434.2932934985391L754.9326182263643 427.0016272636489L754.9326182263643 325.31658426532823L720.9559045520233 325.31658426532823L710.1409542120392 351.1131513652336L706.6176701069452 351.1131513652336L706.6176701069452 314.2871731537297L822.2120260071152 314.2871731537297L822.2120260071152 351.1131513652336L818.6887419020212 351.1131513652336L807.6593307904227 325.31658426532823L773.6826171160817 325.31658426532823L773.6826171160817 427.0016272636489L793.535557116959 434.2932934985391L793.535557116959 437.816577603633ZM910.4473148999033 440.0224598259527L910.4473148999033 440.0224598259527Q892.3713355781168 440.0224598259527 878.125012892302 431.75040149225384Q863.9093274595751 423.478343158555 855.7291808851395 409.0175597011258Q847.5796715637917 394.58741349678445 847.5796715637917 376.05187537868136L847.5796715637917 376.05187537868136Q847.5796715637917 357.51633726057827 855.7291808851395 342.96364204388584Q863.9093274595751 328.4109468271933 878.125012892302 320.13888849349445Q892.3713355781168 311.8668301597956 910.4473148999033 311.8668301597956L910.4473148999033 311.8668301597956Q928.768392246392 311.8668301597956 942.9840776791189 320.13888849349445Q957.1997631118458 328.4109468271933 965.4718214455446 342.96364204388584Q973.7438797792436 357.51633726057827 973.7438797792436 376.05187537868136L973.7438797792436 376.05187537868136Q973.7438797792436 394.58741349678445 965.4718214455446 409.0175597011258Q957.1997631118458 423.478343158555 942.9840776791189 431.75040149225384Q928.768392246392 440.0224598259527 910.4473148999033 440.0224598259527ZM914.1850597766116 428.9930487143542L914.1850597766116 428.9930487143542Q933.1801566910312 428.9930487143542 943.9644697779275 415.9722161520504Q954.7794201179116 402.9513835897466 954.7794201179116 381.56658093448056L954.7794201179116 381.56658093448056Q954.7794201179116 364.1339839275374 948.8357930188836 350.89869059361916Q942.8615286667678 337.66339725970096 932.1691273391348 330.2798192655476Q921.4767260115017 322.8962412713941 907.5674131096524 322.8962412713941L907.5674131096524 322.8962412713941Q888.6029534483206 322.8962412713941 877.5735423367221 335.6719758089957Q866.5441312251236 348.47834759968504 866.5441312251236 369.8631502549511L866.5441312251236 369.8631502549511Q866.5441312251236 387.5102080335087 872.6103073365028 400.868050379778Q878.6764834478819 414.22589272604733 889.368884775515 421.6094707202007Q900.0919233562357 428.9930487143542 914.1850597766116 428.9930487143542ZM1052.5122574679094 437.816577603633L1003.5232897805595 437.816577603633L1003.5232897805595 434.2932934985391L1019.424024133114 427.0016272636489L1019.424024133114 325.1021234937138L1003.5232897805595 317.81045725882365L1003.5232897805595 314.2871731537297L1052.5122574679094 314.2871731537297Q1073.00857978363 314.2871731537297 1084.8345594755106 322.6817804997797Q1096.6299019143034 331.04575059274185 1096.6299019143034 345.5984458094344L1096.6299019143034 345.5984458094344Q1096.6299019143034 356.4133961494185 1089.8897062349934 364.1339839275374Q1083.180147808771 371.8545717056564 1071.262256357627 376.2663361502958L1071.262256357627 376.2663361502958L1105.4534308035827 427.67564683157997L1120.0061260202751 434.2932934985391L1120.0061260202751 437.816577603633L1088.6948533645705 437.816577603633L1052.9411790111385 381.56658093448056L1037.959562251217 381.56658093448056L1037.959562251217 426.7871664920345L1052.5122574679094 434.2932934985391L1052.5122574679094 437.816577603633ZM1049.4178949060447 325.31658426532823L1049.4178949060447 325.31658426532823L1037.959562251217 325.31658426532823L1037.959562251217 370.53716982288205L1050.5208360172041 370.53716982288205Q1062.4387274683481 370.53716982288205 1069.6078446908873 364.4709937115029Q1076.7769619134265 358.40481760012375 1076.7769619134265 347.8043280317541L1076.7769619134265 347.8043280317541Q1076.7769619134265 336.56045614854116 1069.6078446908873 330.9538388334785Q1062.4387274683481 325.31658426532823 1049.4178949060447 325.31658426532823ZM1232.9350409018084 437.816577603633L1133.241419354193 437.816577603633L1133.241419354193 434.2932934985391L1148.8970556820454 427.0016272636489L1148.8970556820454 325.1021234937138L1133.241419354193 317.81045725882365L1133.241419354193 314.2871731537297L1227.4203353460093 314.2871731537297L1227.4203353460093 345.5984458094344L1223.897051240915 345.5984458094344L1213.3271989256332 325.31658426532823L1167.647054571763 325.31658426532823L1167.647054571763 368.33128760056235L1200.949748678173 368.33128760056235L1207.567395345132 353.3190335875533L1211.1213167033134 353.3190335875533L1211.1213167033134 394.1278547004678L1207.567395345132 394.1278547004678L1200.949748678173 379.36069871216085L1167.647054571763 379.36069871216085L1167.647054571763 426.7871664920345L1218.382345685116 426.7871664920345L1229.4117567967146 402.9513835897466L1232.9350409018084 402.9513835897466L1232.9350409018084 437.816577603633Z " fill="#ffffff" transform="matrix(0.7096886945458968,0,0,0.7096886945458969,0,40.94768979586148)"/></g></svg>